<svg width="96" height="96" viewBox="0 0 96 96" fill="none" xmlns="http://www.w3.org/2000/svg">
<path d="M15.8459 46.6633L14.3136 43.1288H14.3124L14.3136 43.1282L15.8454 39.5942L12.3528 41.1444L8.86093 39.5942L10.3926 43.1282L8.86035 46.6627L12.3528 45.1126L12.3535 45.1114V45.1132L15.8459 46.6633Z" fill="black"/>
<path d="M39.9171 18.3858L39.0322 16.3442H39.0316H39.0322L39.9171 14.302L37.8992 15.1975V15.1981L35.8825 14.3026L36.7673 16.3442L35.8818 18.3858L37.8992 17.4902L37.8997 17.4896V17.4902L39.9171 18.3858Z" fill="black"/>
<path d="M83.6459 70.7299L82.2296 67.4622H82.2278L82.229 67.4616L83.6453 64.1938L80.4164 65.6272L77.1881 64.1945L78.6044 67.4616H78.6038L77.1875 70.7293L80.4164 69.296L80.417 69.2948V69.296L83.6459 70.7299Z" fill="black"/>
<path d="M88.0001 52.9434L87.1152 50.9018H87.114L87.1146 50.9012L87.9995 48.8596L85.9822 49.7551L83.9648 48.8596L84.8497 50.9012L83.9648 52.9428L85.9822 52.0473V52.0467V52.0473L88.0001 52.9434Z" fill="black"/>
<path d="M70.2703 80.9206C71.3289 80.9206 72.187 80.0522 72.187 78.9808C72.187 77.9095 71.3289 77.041 70.2703 77.041C69.2117 77.041 68.3535 77.9095 68.3535 78.9808C68.3535 80.0522 69.2117 80.9206 70.2703 80.9206Z" fill="black"/>
<path d="M16.3147 29.1581C16.3147 30.088 15.5703 30.8414 14.6515 30.8414C13.7327 30.8414 12.9883 30.088 12.9883 29.1581C12.9883 28.2283 13.7327 27.4749 14.6515 27.4749C15.5697 27.4749 16.3147 28.2289 16.3147 29.1581Z" fill="black"/>
<path d="M27.2918 79.9899C27.2918 80.5476 26.8449 80.9999 26.2938 80.9999C25.7428 80.9999 25.2959 80.5476 25.2959 79.9899C25.2959 79.4323 25.7428 78.98 26.2938 78.98C26.8449 78.98 27.2918 79.4323 27.2918 79.9899Z" fill="black"/>
<path d="M81.8435 37.5744C81.8435 38.1321 81.3966 38.5843 80.8456 38.5843C80.2946 38.5843 79.8477 38.1321 79.8477 37.5744C79.8477 37.0167 80.2946 36.5645 80.8456 36.5645C81.3966 36.5645 81.8435 37.0167 81.8435 37.5744Z" fill="black"/>
<path d="M27.9568 24.6135C27.9568 25.2639 27.4356 25.7915 26.7929 25.7915C26.1502 25.7915 25.6289 25.2639 25.6289 24.6135C25.6289 23.9625 26.1502 23.4355 26.7929 23.4355C27.4356 23.4355 27.9568 23.9631 27.9568 24.6135Z" fill="black"/>
<path d="M73.5281 18.3857C73.7626 20.4328 73.7709 22.5093 73.6703 24.5774C73.5674 26.6473 73.3359 28.716 72.9938 30.7702C72.3041 34.8775 71.1752 38.9359 69.606 42.8372C66.4789 50.6495 61.5546 57.7956 55.2551 63.4886C54.4607 64.2065 53.6329 64.8882 52.7897 65.5495C51.9417 66.2053 51.0598 66.8166 50.1648 67.4067C48.3772 68.592 46.4831 69.6091 44.5354 70.489C42.5877 71.3719 40.5662 72.0729 38.5209 72.642C36.4673 73.1828 34.3887 73.6038 32.2958 73.8386C28.1124 74.3337 23.9058 74.2169 19.817 73.5978C17.7717 73.2888 15.755 72.8492 13.7788 72.2927C11.8019 71.7393 9.86854 71.0503 8 70.227C12.0406 70.7432 16.0377 71.0473 19.9991 71.0015C23.9564 70.9575 27.8667 70.5739 31.6525 69.7784C33.5419 69.364 35.4063 68.8786 37.2165 68.2469C39.0374 67.6489 40.7935 66.8876 42.5091 66.0619C43.3654 65.6446 44.2033 65.1905 45.0257 64.7117C45.8475 64.2311 46.6628 63.7397 47.4512 63.2049C48.2409 62.6726 49.0175 62.1197 49.7685 61.5307C50.5248 60.9496 51.2699 60.3503 51.9863 59.7156C52.7022 59.0874 53.4074 58.4177 54.1048 57.7396C54.8064 57.0675 55.4788 56.3647 56.1465 55.6577C57.4592 54.2231 58.7351 52.7489 59.9181 51.1951C62.2972 48.0996 64.3955 44.765 66.2003 41.2491C68.0016 37.7315 69.5262 34.0385 70.7551 30.2155C71.3698 28.304 71.9101 26.36 72.3832 24.3895C72.8444 22.4183 73.2604 20.4225 73.5281 18.3857Z" fill="black"/>
<path d="M80.5724 27.8114L75.3667 20.4063H75.3637L75.3655 20.4051L80.5712 13L73.2536 18.2678V18.2684L65.9371 13.0006L71.1423 20.4051L65.9365 27.8109L73.2542 22.5425L73.2548 22.5407V22.5437L80.5724 27.8114Z" fill="black"/>
<path d="M33.5362 59.4959C36.4723 59.0129 39.4768 58.1776 42.432 57.0575C43.9077 56.4926 45.3883 55.8849 46.8403 55.1899C48.2899 54.4907 49.7211 53.7271 51.1308 52.905C53.9319 51.2374 56.646 49.3476 59.1405 47.1621C60.3837 46.0672 61.5887 44.9145 62.6955 43.6679C63.8065 42.4267 64.8718 41.1301 65.8144 39.7419C66.4231 38.8512 66.9932 37.9262 67.5103 36.971C66.6439 35.8033 65.6822 34.7114 64.6391 33.7063C62.4289 31.5762 59.8451 29.8423 57.0018 28.6023C53.8569 27.231 50.3929 26.4644 46.751 26.4644C39.6696 26.4644 33.2553 29.3395 28.5756 33.9948C24.5481 38.0021 21.8042 43.3276 21.0342 49.2838C20.8884 50.41 20.8057 51.556 20.8057 52.722C20.8057 54.5708 20.9967 56.3745 21.3561 58.1156C21.4376 58.174 21.5061 58.2439 21.5983 58.2975C21.7905 58.4089 21.9625 58.5438 22.1839 58.6426C22.5885 58.872 23.0795 59.0617 23.5888 59.2436C24.1238 59.3942 24.6766 59.5616 25.289 59.6561C27.7157 60.0909 30.6137 59.9819 33.5362 59.4959Z" fill="black"/>
<path d="M71.3898 44.4895C71.0381 43.4109 70.6174 42.3649 70.1371 41.3531C70.1687 41.706 70.2996 42.0685 70.2186 42.4154C70.1984 42.0589 70.1693 41.706 70.1371 41.3531C69.5825 40.1842 68.9476 39.0616 68.2341 37.9968C67.8848 38.846 67.5075 39.6843 67.1052 40.5094C65.5699 43.647 63.6865 46.6317 61.5531 49.4454C60.4778 50.8444 59.368 52.22313 58.1784 53.5532C56.9871 54.8721 55.7386 56.1465 54.439 57.3775C49.2178 62.252 43.1146 66.4809 35.8577 68.8838C35.4001 69.0241 34.9484 69.1801 34.4818 69.3054C34.0141 69.427 33.5511 69.5601 33.0763 69.6703C32.599 69.7745 32.126 69.8914 31.6416 69.9823C31.1536 70.0636 30.6704 70.1588 30.1747 70.2256C29.676 70.2858 29.1845 70.3641 28.6763 70.4039C28.3293 70.4255 27.9872 70.4581 27.6396 70.4785C29.1821 72.1781 30.9441 73.671 32.8787 74.9122C35.3376 76.4901 38.0767 77.6614 41.0039 78.3317C42.8528 78.7551 44.7755 78.9809 46.7512 78.9809C61.0806 78.9809 72.6965 67.2253 72.6965 52.7234C72.6959 49.8459 72.2348 47.0792 71.3898 44.4895Z" fill="black"/>
</svg>
